<svg width="56" height="56" viewBox="0 0 120 120" fill="none" xmlns="http://www.w3.org/2000/svg">
  <defs>
    <linearGradient id="blueGrad" x1="0%" y1="0%" x2="100%" y2="100%">
      <stop offset="0%" stopColor="#3B82F6" />
      <stop offset="100%" stopColor="#2563EB" />
    </linearGradient>
    <linearGradient id="greenGrad" x1="0%" y1="0%" x2="100%" y2="100%">
      <stop offset="0%" stopColor="#22C55E" />
      <stop offset="100%" stopColor="#16A34A" />
    </linearGradient>
    <linearGradient id="redGrad" x1="0%" y1="0%" x2="100%" y2="100%">
      <stop offset="0%" stopColor="#EF4444" />
      <stop offset="100%" stopColor="#DC2626" />
    </linearGradient>
    <linearGradient id="yellowGrad" x1="0%" y1="0%" x2="100%" y2="100%">
      <stop offset="0%" stopColor="#FACC15" />
      <stop offset="100%" stopColor="#EAB308" />
    </linearGradient>
    <linearGradient id="orangeGrad" x1="0%" y1="0%" x2="100%" y2="100%">
      <stop offset="0%" stopColor="#F97316" />
      <stop offset="100%" stopColor="#EA580C" />
    </linearGradient>
  </defs>
  <g stroke-width="6" stroke-linecap="square" stroke-linejoin="miter" stroke-miterlimit="10">
    <path d="M 37.5 30 L 37.5 90" stroke="url(#greenGrad)" />
    <path d="M 82.5 30 L 82.5 90" stroke="url(#redGrad)" />
    <path d="M 15 80 L 37.5 50 L 60 40" stroke="url(#blueGrad)" />
    <path d="M 105 80 L 82.5 50" stroke="url(#yellowGrad)" />
    <path d="M 37.5 70 L 60 80" stroke="url(#orangeGrad)" />
    <path d="M 15 40 L 60 20" stroke="url(#blueGrad)" />
    <path d="M 60 20 L 105 40" stroke="url(#greenGrad)" />
    <path d="M 105 40 L 105 80" stroke="url(#yellowGrad)" />
    <path d="M 105 80 L 60 100 L 15 80" stroke="url(#orangeGrad)" />
    <path d="M 15 80 L 15 40" stroke="url(#blueGrad)" />
    <path d="M 60 20 L 37.5 30" stroke="url(#greenGrad)" />
    <path d="M 60 20 L 82.5 30" stroke="url(#greenGrad)" />
    <path d="M 82.5 30 L 60 40" stroke="url(#greenGrad)" />
    <path d="M 82.5 70 L 60 80" stroke="url(#redGrad)" />
    <path d="M 15 40 L 37.5 70" stroke="url(#blueGrad)" />
    <path d="M 105 40 L 82.5 70" stroke="url(#yellowGrad)" />
    <path d="M 71.25 35 L 60 40" stroke="url(#greenGrad)" />
    <path d="M 71.25 75 L 60 80" stroke="url(#redGrad)" />
  </g>
</svg>
